<svg width="16" height="20" viewBox="0 0 16 20" fill="none" xmlns="http://www.w3.org/2000/svg">
<path d="M8.00001 20C12.2526 20 16 17 16 13C16 9 13 7 12 6C10.5939 4.5939 10.1521 2.74612 10.0254 1.4746C9.95525 0.770672 9.27593 0.271446 8.68639 0.662434C7.53352 1.42702 5.90375 2.98749 5 6C4.35747 8.14176 5 10 5 10C5 10 4 9.5 3.5 8C3.3353 7.5059 3.11635 6.90329 2.89675 6.31727C2.58071 5.47387 1.44066 5.48134 1.1629 6.33811C0.614975 8.0282 0 10.3031 0 12C0 17 3.74745 20 8.00001 20Z" fill="white"/>
</svg>
